<svg xmlns="http://www.w3.org/2000/svg" viewBox="0 0 64 64">
  <circle cx="32" cy="32" r="32" fill="#FAFAF8"/>
  <path d="M20 30c0-6 4-10 8-10 1.5 0 2.9.5 4 1.4C33.1 20.5 34.5 20 36 20c4.4 0 8 4 8 10 0 1.1-.2 2.1-.6 3H20.6c-.4-.9-.6-1.9-.6-3z" fill="#D17557"/>
  <rect x="21" y="33" width="22" height="4" rx="1" fill="#D17557"/>
  <rect x="23" y="38" width="18" height="10" rx="2" fill="#141413"/>
  <rect x="26" y="41" width="2.5" height="4" rx="1" fill="#FAFAF8"/>
  <rect x="30.75" y="41" width="2.5" height="4" rx="1" fill="#FAFAF8"/>
  <rect x="35.5" y="41" width="2.5" height="4" rx="1" fill="#FAFAF8"/>
</svg>
